<?xml version="1.0" encoding="utf-8"?>
<svg xmlns="http://www.w3.org/2000/svg">
<symbol id="arrow-bottom-left" viewBox="0 0 24 24">
  <path d="M18.2426 7.17154L16.8284 5.75732L7.75739 14.8283L7.75739 10.2427H5.75739L5.75739 18.2427H13.7574V16.2427L9.17144 16.2427L18.2426 7.17154Z" fill="currentColor"/>

</symbol>
<symbol id="arrow-bottom-right" viewBox="0 0 24 24">
  <path d="M5.75739 7.17154L7.1716 5.75732L16.2426 14.8283L16.2426 10.2427H18.2426L18.2426 18.2427H10.2426V16.2427L14.8285 16.2427L5.75739 7.17154Z" fill="currentColor"/>

</symbol>
<symbol id="arrow-down" viewBox="0 0 24 24">
  <path d="M11.0001 3.67157L13.0001 3.67157L13.0001 16.4999L16.2426 13.2574L17.6568 14.6716L12 20.3284L6.34314 14.6716L7.75735 13.2574L11.0001 16.5001L11.0001 3.67157Z" fill="currentColor"/>

</symbol>
<symbol id="arrow-left" viewBox="0 0 24 24">
  <path d="M20.3284 11.0001V13.0001L7.50011 13.0001L10.7426 16.2426L9.32842 17.6568L3.67157 12L9.32842 6.34314L10.7426 7.75735L7.49988 11.0001L20.3284 11.0001Z" fill="currentColor"/>

</symbol>
<symbol id="arrow-right" viewBox="0 0 24 24">
  <path d="M15.0378 6.34317L13.6269 7.76069L16.8972 11.0157L3.29211 11.0293L3.29413 13.0293L16.8619 13.0157L13.6467 16.2459L15.0643 17.6568L20.7079 11.9868L15.0378 6.34317Z" fill="currentColor"/>

</symbol>
<symbol id="arrow-top-left" viewBox="0 0 24 24">
  <path d="M13.4747 5.49475L13.4793 7.49475L8.92175 7.50541L18.5253 17.0896L17.1125 18.5052L7.48259 8.89473L7.49339 13.5088L5.49339 13.5134L5.47467 5.51345L13.4747 5.49475Z" fill="currentColor"/>

</symbol>
<symbol id="arrow-top-right" viewBox="0 0 24 24">
  <path d="M10.5253 5.49475L10.5206 7.49475L15.0782 7.50541L5.47473 17.0896L6.88752 18.5052L16.5173 8.89479L16.5065 13.5088L18.5065 13.5134L18.5253 5.51345L10.5253 5.49475Z" fill="currentColor"/>

</symbol>
<symbol id="arrow-up" viewBox="0 0 24 24">
  <path d="M17.6568 8.96219L16.2393 10.3731L12.9843 7.10285L12.9706 20.7079L10.9706 20.7059L10.9843 7.13806L7.75404 10.3532L6.34314 8.93572L12.0132 3.29211L17.6568 8.96219Z" fill="currentColor"/>

</symbol>
<symbol id="attachment" viewBox="0 0 24 24">
  <path d="M14 0C16.7614 0 19 2.23858 19 5V17C19 20.866 15.866 24 12 24C8.13401 24 5 20.866 5 17V9H7V17C7 19.7614 9.23858 22 12 22C14.7614 22 17 19.7614 17 17V5C17 3.34315 15.6569 2 14 2C12.3431 2 11 3.34315 11 5V17C11 17.5523 11.4477 18 12 18C12.5523 18 13 17.5523 13 17V6H15V17C15 18.6569 13.6569 20 12 20C10.3431 20 9 18.6569 9 17V5C9 2.23858 11.2386 0 14 0Z" fill="currentColor"/>

</symbol>
<symbol id="bell" viewBox="0 0 24 24">
  <path fill-rule="evenodd" clip-rule="evenodd" d="M14 3V3.28988C16.8915 4.15043 19 6.82898 19 10V17H20V19H4V17H5V10C5 6.82898 7.10851 4.15043 10 3.28988V3C10 1.89543 10.8954 1 12 1C13.1046 1 14 1.89543 14 3ZM7 17H17V10C17 7.23858 14.7614 5 12 5C9.23858 5 7 7.23858 7 10V17ZM14 21V20H10V21C10 22.1046 10.8954 23 12 23C13.1046 23 14 22.1046 14 21Z" fill="currentColor"/>

</symbol>
<symbol id="block" viewBox="0 0 24 24">
  <path d="M8.46457 14.1213C8.07404 14.5118 8.07404 15.145 8.46457 15.5355C8.85509 15.926 9.48825 15.926 9.87878 15.5355L15.5356 9.87862C15.9262 9.4881 15.9262 8.85493 15.5356 8.46441C15.1451 8.07388 14.5119 8.07388 14.1214 8.46441L8.46457 14.1213Z" fill="currentColor"/>
  <path fill-rule="evenodd" clip-rule="evenodd" d="M6.34315 17.6569C9.46734 20.781 14.5327 20.781 17.6569 17.6569C20.781 14.5327 20.781 9.46734 17.6569 6.34315C14.5327 3.21895 9.46734 3.21895 6.34315 6.34315C3.21895 9.46734 3.21895 14.5327 6.34315 17.6569ZM16.2426 16.2426C13.8995 18.5858 10.1005 18.5858 7.75736 16.2426C5.41421 13.8995 5.41421 10.1005 7.75736 7.75736C10.1005 5.41421 13.8995 5.41421 16.2426 7.75736C18.5858 10.1005 18.5858 13.8995 16.2426 16.2426Z" fill="currentColor"/>

</symbol>
<symbol id="bookmark" viewBox="0 0 24 24">
  <path fill-rule="evenodd" clip-rule="evenodd" d="M19 20H17.1717L12.7072 15.5354C12.3166 15.1449 11.6835 15.1449 11.2929 15.5354L6.82843 20L5 20V7C5 5.34315 6.34315 4 8 4H16C17.6569 4 19 5.34314 19 7V20ZM17 7C17 6.44772 16.5523 6 16 6H8C7.44772 6 7 6.44772 7 7V17L9.87873 14.1212C11.0503 12.9497 12.9498 12.9497 14.1214 14.1212L17 16.9999V7Z" fill="currentColor"/>

</symbol>
<symbol id="briefcase" viewBox="0 0 24 24">
  <path d="M14 11H10V13H14V11Z" fill="currentColor"/>
  <path fill-rule="evenodd" clip-rule="evenodd" d="M7 5V4C7 2.89545 7.89539 2 9 2H15C16.1046 2 17 2.89545 17 4V5H20C21.6569 5 23 6.34314 23 8V18C23 19.6569 21.6569 21 20 21H4C2.34314 21 1 19.6569 1 18V8C1 6.34314 2.34314 5 4 5H7ZM9 4H15V5H9V4ZM4 7C3.44775 7 3 7.44769 3 8V14H21V8C21 7.44769 20.5522 7 20 7H4ZM3 18V16H21V18C21 18.5523 20.5522 19 20 19H4C3.44775 19 3 18.5523 3 18Z" fill="currentColor"/>

</symbol>
<symbol id="chevron-down" viewBox="0 0 24 24">
  <path d="M6.34317 7.75732L4.92896 9.17154L12 16.2426L19.0711 9.17157L17.6569 7.75735L12 13.4142L6.34317 7.75732Z" fill="currentColor"/>

</symbol>
<symbol id="chevron-left" viewBox="0 0 24 24">
  <path d="M16.2426 6.34317L14.8284 4.92896L7.75739 12L14.8285 19.0711L16.2427 17.6569L10.5858 12L16.2426 6.34317Z" fill="currentColor"/>

</symbol>
<symbol id="chevron-right" viewBox="0 0 24 24">
  <path d="M10.5858 6.34317L12 4.92896L19.0711 12L12 19.0711L10.5858 17.6569L16.2427 12L10.5858 6.34317Z" fill="currentColor"/>

</symbol>
<symbol id="chevron-up" viewBox="0 0 24 24">
  <path d="M17.6569 16.2427L19.0711 14.8285L12.0001 7.75739L4.92896 14.8285L6.34317 16.2427L12.0001 10.5858L17.6569 16.2427Z" fill="currentColor"/>

</symbol>
<symbol id="clipboard" viewBox="0 0 24 24">
  <path d="M8 11C7.44772 11 7 11.4477 7 12C7 12.5523 7.44772 13 8 13H15.9595C16.5118 13 16.9595 12.5523 16.9595 12C16.9595 11.4477 16.5118 11 15.9595 11H8Z" fill="currentColor"/>
  <path d="M8.04053 15.0665C7.48824 15.0665 7.04053 15.5142 7.04053 16.0665C7.04053 16.6188 7.48824 17.0665 8.04053 17.0665H16C16.5523 17.0665 17 16.6188 17 16.0665C17 15.5142 16.5523 15.0665 16 15.0665H8.04053Z" fill="currentColor"/>
  <path fill-rule="evenodd" clip-rule="evenodd" d="M5 3C3.89543 3 3 3.89543 3 5V19C3 20.1046 3.89543 21 5 21H19C20.1046 21 21 20.1046 21 19V5C21 3.89543 20.1046 3 19 3H5ZM7 5H5L5 19H19V5H17V6C17 7.65685 15.6569 9 14 9H10C8.34315 9 7 7.65685 7 6V5ZM9 5V6C9 6.55228 9.44772 7 10 7H14C14.5523 7 15 6.55228 15 6V5H9Z" fill="currentColor"/>

</symbol>
<symbol id="close" viewBox="0 0 24 24">
  <path d="M6.2253 4.81108C5.83477 4.42056 5.20161 4.42056 4.81108 4.81108C4.42056 5.20161 4.42056 5.83477 4.81108 6.2253L10.5858 12L4.81114 17.7747C4.42062 18.1652 4.42062 18.7984 4.81114 19.1889C5.20167 19.5794 5.83483 19.5794 6.22535 19.1889L12 13.4142L17.7747 19.1889C18.1652 19.5794 18.7984 19.5794 19.1889 19.1889C19.5794 18.7984 19.5794 18.1652 19.1889 17.7747L13.4142 12L19.189 6.2253C19.5795 5.83477 19.5795 5.20161 19.189 4.81108C18.7985 4.42056 18.1653 4.42056 17.7748 4.81108L12 10.5858L6.2253 4.81108Z" fill="currentColor"/>

</symbol>
<symbol id="code" viewBox="0 0 24 24">
  <path d="M9.95263 16.9123L8.59323 18.3608L2.03082 12.2016L8.18994 5.63922L9.64826 7.00791L4.85783 12.112L9.95212 16.8932L9.95263 16.9123Z" fill="currentColor"/>
  <path d="M14.0474 16.9123L15.4068 18.3608L21.9692 12.2016L15.8101 5.63922L14.3517 7.00791L19.1422 12.112L14.0479 16.8932L14.0474 16.9123Z" fill="currentColor"/>

</symbol>
<symbol id="color-picker" viewBox="0 0 24 24">
  <path d="M20.3847 2.87868C19.2132 1.70711 17.3137 1.70711 16.1421 2.87868L14.0202 5.00052L13.313 4.29332C12.9225 3.9028 12.2894 3.9028 11.8988 4.29332C11.5083 4.68385 11.5083 5.31701 11.8988 5.70754L17.5557 11.3644C17.9462 11.7549 18.5794 11.7549 18.9699 11.3644C19.3604 10.9739 19.3604 10.3407 18.9699 9.95018L18.2629 9.24316L20.3847 7.12132C21.5563 5.94975 21.5563 4.05025 20.3847 2.87868Z" fill="currentColor"/>
  <path fill-rule="evenodd" clip-rule="evenodd" d="M11.9297 7.09116L4.1515 14.8693C3.22786 15.793 3.03239 17.169 3.5651 18.2842L1.99994 19.8493L3.41415 21.2635L4.97931 19.6984C6.09444 20.2311 7.4705 20.0356 8.39414 19.112L16.1723 11.3338L11.9297 7.09116ZM13.3439 11.3338L11.9297 9.91959L5.56571 16.2835C5.17518 16.6741 5.17518 17.3072 5.56571 17.6978C5.95623 18.0883 6.5894 18.0883 6.97992 17.6978L13.3439 11.3338Z" fill="currentColor"/>

</symbol>
<symbol id="export" viewBox="0 0 24 24">
  <path d="M16.9498 5.96781L15.5356 7.38203L13 4.84646V17.0421H11V4.84653L8.46451 7.38203L7.05029 5.96781L12 1.01807L16.9498 5.96781Z" fill="currentColor"/>
  <path d="M5 20.9819V10.9819H9V8.98193H3V22.9819H21V8.98193H15V10.9819H19V20.9819H5Z" fill="currentColor"/>

</symbol>
<symbol id="eye" viewBox="0 0 24 24">
  <path fill-rule="evenodd" clip-rule="evenodd" d="M16 12C16 14.2091 14.2091 16 12 16C9.79086 16 8 14.2091 8 12C8 9.79086 9.79086 8 12 8C14.2091 8 16 9.79086 16 12ZM14 12C14 13.1046 13.1046 14 12 14C10.8954 14 10 13.1046 10 12C10 10.8954 10.8954 10 12 10C13.1046 10 14 10.8954 14 12Z" fill="currentColor"/>
  <path fill-rule="evenodd" clip-rule="evenodd" d="M12 3C17.5915 3 22.2898 6.82432 23.6219 12C22.2898 17.1757 17.5915 21 12 21C6.40848 21 1.71018 17.1757 0.378052 12C1.71018 6.82432 6.40848 3 12 3ZM12 19C7.52443 19 3.73132 16.0581 2.45723 12C3.73132 7.94186 7.52443 5 12 5C16.4756 5 20.2687 7.94186 21.5428 12C20.2687 16.0581 16.4756 19 12 19Z" fill="currentColor"/>

</symbol>
<symbol id="flag" viewBox="0 0 24 24">
  <path fill-rule="evenodd" clip-rule="evenodd" d="M4 21H6V11H12V13H20V5H13V3H4V21ZM12 5H6V9H13V11H18V7H12V5Z" fill="currentColor"/>

</symbol>
<symbol id="forward" viewBox="0 0 24 24">
  <path d="M13.6378 15.529L15.052 16.9432L20.0018 11.9934L15.052 7.0437L13.6378 8.45791L16.1363 10.9564H7.99823C5.78909 10.9564 3.99823 12.7472 3.99823 14.9564V16.9564H5.99823V14.9564C5.99823 13.8518 6.89366 12.9564 7.99823 12.9564H16.2104L13.6378 15.529Z" fill="currentColor"/>

</symbol>
<symbol id="heart" viewBox="0 0 24 24">
  <path fill-rule="evenodd" clip-rule="evenodd" d="M12.0122 5.57169L10.9252 4.48469C8.77734 2.33681 5.29493 2.33681 3.14705 4.48469C0.999162 6.63258 0.999162 10.115 3.14705 12.2629L11.9859 21.1017L11.9877 21.0999L12.014 21.1262L20.8528 12.2874C23.0007 10.1395 23.0007 6.65711 20.8528 4.50923C18.705 2.36134 15.2226 2.36134 13.0747 4.50923L12.0122 5.57169ZM11.9877 18.2715L16.9239 13.3352L18.3747 11.9342L18.3762 11.9356L19.4386 10.8732C20.8055 9.50635 20.8055 7.29028 19.4386 5.92344C18.0718 4.55661 15.8557 4.55661 14.4889 5.92344L12.0133 8.39904L12.006 8.3918L12.005 8.39287L9.51101 5.89891C8.14417 4.53207 5.92809 4.53207 4.56126 5.89891C3.19442 7.26574 3.19442 9.48182 4.56126 10.8487L7.10068 13.3881L7.10248 13.3863L11.9877 18.2715Z" fill="currentColor"/>

</symbol>
<symbol id="import" viewBox="0 0 24 24">
  <path d="M5 9.98193V19.9819H19V9.98193H15V7.98193H21V21.9819H3V7.98193H9V9.98193H5Z" fill="currentColor"/>
  <path d="M13.0001 2H11.0001V14.0531L8.46451 11.5175L7.05029 12.9317L12 17.8815L16.9498 12.9317L15.5356 11.5175L13.0001 14.053V2Z" fill="currentColor"/>

</symbol>
<symbol id="instagram" viewBox="0 0 24 24">
  <metadata id="metadata14">
    <rdf:RDF>
      <cc:Work rdf:about="">
        <dc:format>image/svg+xml</dc:format>
        <dc:type rdf:resource="http://purl.org/dc/dcmitype/StillImage"/>
      </cc:Work>
    </rdf:RDF>
  </metadata>
  <defs id="defs12"/>
  <sodipodi:namedview pagecolor="#ffffff" bordercolor="#666666" borderopacity="1" objecttolerance="10" gridtolerance="10" guidetolerance="10" inkscape:pageopacity="0" inkscape:pageshadow="2" inkscape:window-width="640" inkscape:window-height="480" id="namedview10"/>
  <rect x="2" y="2" width="20" height="20" rx="5" ry="5" id="rect2"/>
  <path d="M16 11.37A4 4 0 1 1 12.63 8 4 4 0 0 1 16 11.37z" id="path4"/>
  <line x1="17.5" y1="6.5" x2="17.51" y2="6.5" id="line6"/>

</symbol>
<symbol id="layout-grid" viewBox="0 0 24 24">
  <path d="M11 7H7V11H11V7Z" fill="currentColor"/>
  <path d="M11 13H7V17H11V13Z" fill="currentColor"/>
  <path d="M13 13H17V17H13V13Z" fill="currentColor"/>
  <path d="M17 7H13V11H17V7Z" fill="currentColor"/>

</symbol>
<symbol id="layout-list" viewBox="0 0 24 24">
  <path d="M9 7H7V9H9V7Z" fill="currentColor"/>
  <path d="M7 13V11H9V13H7Z" fill="currentColor"/>
  <path d="M7 15V17H9V15H7Z" fill="currentColor"/>
  <path d="M11 15V17H17V15H11Z" fill="currentColor"/>
  <path d="M17 13V11H11V13H17Z" fill="currentColor"/>
  <path d="M17 7V9H11V7H17Z" fill="currentColor"/>

</symbol>
<symbol id="link" viewBox="0 0 24 24">
  <path d="M14.8284 12L16.2426 13.4142L19.071 10.5858C20.6331 9.02365 20.6331 6.49099 19.071 4.9289C17.509 3.3668 14.9763 3.3668 13.4142 4.9289L10.5858 7.75732L12 9.17154L14.8284 6.34311C15.6095 5.56206 16.8758 5.56206 17.6568 6.34311C18.4379 7.12416 18.4379 8.39049 17.6568 9.17154L14.8284 12Z" fill="currentColor"/>
  <path d="M12 14.8285L13.4142 16.2427L10.5858 19.0711C9.02372 20.6332 6.49106 20.6332 4.92896 19.0711C3.36686 17.509 3.36686 14.9764 4.92896 13.4143L7.75739 10.5858L9.1716 12L6.34317 14.8285C5.56212 15.6095 5.56212 16.8758 6.34317 17.6569C7.12422 18.4379 8.39055 18.4379 9.1716 17.6569L12 14.8285Z" fill="currentColor"/>
  <path d="M14.8285 10.5857C15.219 10.1952 15.219 9.56199 14.8285 9.17147C14.4379 8.78094 13.8048 8.78094 13.4142 9.17147L9.1716 13.4141C8.78107 13.8046 8.78107 14.4378 9.1716 14.8283C9.56212 15.2188 10.1953 15.2188 10.5858 14.8283L14.8285 10.5857Z" fill="currentColor"/>

</symbol>
<symbol id="lock" viewBox="0 0 24 24">
  <path fill-rule="evenodd" clip-rule="evenodd" d="M18 10.5C19.6569 10.5 21 11.8431 21 13.5V19.5C21 21.1569 19.6569 22.5 18 22.5H6C4.34315 22.5 3 21.1569 3 19.5V13.5C3 11.8431 4.34315 10.5 6 10.5V7.5C6 4.18629 8.68629 1.5 12 1.5C15.3137 1.5 18 4.18629 18 7.5V10.5ZM12 3.5C14.2091 3.5 16 5.29086 16 7.5V10.5H8V7.5C8 5.29086 9.79086 3.5 12 3.5ZM18 12.5H6C5.44772 12.5 5 12.9477 5 13.5V19.5C5 20.0523 5.44772 20.5 6 20.5H18C18.5523 20.5 19 20.0523 19 19.5V13.5C19 12.9477 18.5523 12.5 18 12.5Z" fill="currentColor"/>

</symbol>
<symbol id="mail" viewBox="0 0 24 24">
  <path fill-rule="evenodd" clip-rule="evenodd" d="M3.00977 5.83789C3.00977 5.28561 3.45748 4.83789 4.00977 4.83789H20C20.5523 4.83789 21 5.28561 21 5.83789V17.1621C21 18.2667 20.1046 19.1621 19 19.1621H5C3.89543 19.1621 3 18.2667 3 17.1621V6.16211C3 6.11449 3.00333 6.06765 3.00977 6.0218V5.83789ZM5 8.06165V17.1621H19V8.06199L14.1215 12.9405C12.9499 14.1121 11.0504 14.1121 9.87885 12.9405L5 8.06165ZM6.57232 6.80554H17.428L12.7073 11.5263C12.3168 11.9168 11.6836 11.9168 11.2931 11.5263L6.57232 6.80554Z" fill="currentColor"/>

</symbol>
<symbol id="maximize" viewBox="0 0 24 24">
  <path d="M3 3H9V5H5V9H3V3Z" fill="currentColor"/>
  <path d="M3 21H9V19H5V15H3V21Z" fill="currentColor"/>
  <path d="M15 21H21V15H19V19H15V21Z" fill="currentColor"/>
  <path d="M21 3H15V5H19V9H21V3Z" fill="currentColor"/>

</symbol>
<symbol id="menu-grid-o" viewBox="0 0 24 24">
  <path d="M8 6C8 7.10457 7.10457 8 6 8C4.89543 8 4 7.10457 4 6C4 4.89543 4.89543 4 6 4C7.10457 4 8 4.89543 8 6Z" fill="currentColor"/>
  <path d="M8 12C8 13.1046 7.10457 14 6 14C4.89543 14 4 13.1046 4 12C4 10.8954 4.89543 10 6 10C7.10457 10 8 10.8954 8 12Z" fill="currentColor"/>
  <path d="M6 20C7.10457 20 8 19.1046 8 18C8 16.8954 7.10457 16 6 16C4.89543 16 4 16.8954 4 18C4 19.1046 4.89543 20 6 20Z" fill="currentColor"/>
  <path d="M14 6C14 7.10457 13.1046 8 12 8C10.8954 8 10 7.10457 10 6C10 4.89543 10.8954 4 12 4C13.1046 4 14 4.89543 14 6Z" fill="currentColor"/>
  <path d="M12 14C13.1046 14 14 13.1046 14 12C14 10.8954 13.1046 10 12 10C10.8954 10 10 10.8954 10 12C10 13.1046 10.8954 14 12 14Z" fill="currentColor"/>
  <path d="M14 18C14 19.1046 13.1046 20 12 20C10.8954 20 10 19.1046 10 18C10 16.8954 10.8954 16 12 16C13.1046 16 14 16.8954 14 18Z" fill="currentColor"/>
  <path d="M18 8C19.1046 8 20 7.10457 20 6C20 4.89543 19.1046 4 18 4C16.8954 4 16 4.89543 16 6C16 7.10457 16.8954 8 18 8Z" fill="currentColor"/>
  <path d="M20 12C20 13.1046 19.1046 14 18 14C16.8954 14 16 13.1046 16 12C16 10.8954 16.8954 10 18 10C19.1046 10 20 10.8954 20 12Z" fill="currentColor"/>
  <path d="M18 20C19.1046 20 20 19.1046 20 18C20 16.8954 19.1046 16 18 16C16.8954 16 16 16.8954 16 18C16 19.1046 16.8954 20 18 20Z" fill="currentColor"/>

</symbol>
<symbol id="menu-grid-r" viewBox="0 0 24 24">
  <path d="M4 4H8V8H4V4Z" fill="currentColor"/>
  <path d="M4 10H8V14H4V10Z" fill="currentColor"/>
  <path d="M8 16H4V20H8V16Z" fill="currentColor"/>
  <path d="M10 4H14V8H10V4Z" fill="currentColor"/>
  <path d="M14 10H10V14H14V10Z" fill="currentColor"/>
  <path d="M10 16H14V20H10V16Z" fill="currentColor"/>
  <path d="M20 4H16V8H20V4Z" fill="currentColor"/>
  <path d="M16 10H20V14H16V10Z" fill="currentColor"/>
  <path d="M20 16H16V20H20V16Z" fill="currentColor"/>

</symbol>
<symbol id="menu-left" viewBox="0 0 24 24">
  <path d="M2 5.99519C2 5.44556 2.44556 5 2.99519 5H11.0048C11.5544 5 12 5.44556 12 5.99519C12 6.54482 11.5544 6.99039 11.0048 6.99039H2.99519C2.44556 6.99039 2 6.54482 2 5.99519Z" fill="currentColor"/>
  <path d="M2 11.9998C2 11.4501 2.44556 11.0046 2.99519 11.0046H21.0048C21.5544 11.0046 22 11.4501 22 11.9998C22 12.5494 21.5544 12.9949 21.0048 12.9949H2.99519C2.44556 12.9949 2 12.5494 2 11.9998Z" fill="currentColor"/>
  <path d="M2.99519 17.0096C2.44556 17.0096 2 17.4552 2 18.0048C2 18.5544 2.44556 19 2.99519 19H15.0048C15.5544 19 16 18.5544 16 18.0048C16 17.4552 15.5544 17.0096 15.0048 17.0096H2.99519Z" fill="currentColor"/>

</symbol>
<symbol id="menu-right" viewBox="0 0 24 24">
  <path d="M22 18.0048C22 18.5544 21.5544 19 21.0048 19H12.9952C12.4456 19 12 18.5544 12 18.0048C12 17.4552 12.4456 17.0096 12.9952 17.0096H21.0048C21.5544 17.0096 22 17.4552 22 18.0048Z" fill="currentColor"/>
  <path d="M22 12.0002C22 12.5499 21.5544 12.9954 21.0048 12.9954H2.99519C2.44556 12.9954 2 12.5499 2 12.0002C2 11.4506 2.44556 11.0051 2.99519 11.0051H21.0048C21.5544 11.0051 22 11.4506 22 12.0002Z" fill="currentColor"/>
  <path d="M21.0048 6.99039C21.5544 6.99039 22 6.54482 22 5.99519C22 5.44556 21.5544 5 21.0048 5H8.99519C8.44556 5 8 5.44556 8 5.99519C8 6.54482 8.44556 6.99039 8.99519 6.99039H21.0048Z" fill="currentColor"/>

</symbol>
<symbol id="menu" viewBox="0 0 24 24">
  <path d="M2 6C2 5.44772 2.44772 5 3 5H21C21.5523 5 22 5.44772 22 6C22 6.55228 21.5523 7 21 7H3C2.44772 7 2 6.55228 2 6Z" fill="currentColor"/>
  <path d="M2 12.0322C2 11.4799 2.44772 11.0322 3 11.0322H21C21.5523 11.0322 22 11.4799 22 12.0322C22 12.5845 21.5523 13.0322 21 13.0322H3C2.44772 13.0322 2 12.5845 2 12.0322Z" fill="currentColor"/>
  <path d="M3 17.0645C2.44772 17.0645 2 17.5122 2 18.0645C2 18.6167 2.44772 19.0645 3 19.0645H21C21.5523 19.0645 22 18.6167 22 18.0645C22 17.5122 21.5523 17.0645 21 17.0645H3Z" fill="currentColor"/>

</symbol>
<symbol id="minimize" viewBox="0 0 24 24">
  <path d="M9 9H3V7H7V3H9V9Z" fill="currentColor"/>
  <path d="M9 15H3V17H7V21H9V15Z" fill="currentColor"/>
  <path d="M21 15H15V21H17V17H21V15Z" fill="currentColor"/>
  <path d="M15 9.00012H21V7.00012H17V3.00012H15V9.00012Z" fill="currentColor"/>

</symbol>
<symbol id="minus" viewBox="0 0 24 24">
  <path d="M4 12C4 11.4477 4.44772 11 5 11H19C19.5523 11 20 11.4477 20 12C20 12.5523 19.5523 13 19 13H5C4.44772 13 4 12.5523 4 12Z" fill="currentColor"/>

</symbol>
<symbol id="moon" viewBox="0 0 24 24">
  <path fill-rule="evenodd" clip-rule="evenodd" d="M12.2256 2.00253C9.59172 1.94346 6.93894 2.9189 4.92893 4.92891C1.02369 8.83415 1.02369 15.1658 4.92893 19.071C8.83418 22.9763 15.1658 22.9763 19.0711 19.071C21.0811 17.061 22.0565 14.4082 21.9975 11.7743C21.9796 10.9772 21.8669 10.1818 21.6595 9.40643C21.0933 9.9488 20.5078 10.4276 19.9163 10.8425C18.5649 11.7906 17.1826 12.4053 15.9301 12.6837C14.0241 13.1072 12.7156 12.7156 12 12C11.2844 11.2844 10.8928 9.97588 11.3163 8.0699C11.5947 6.81738 12.2094 5.43511 13.1575 4.08368C13.5724 3.49221 14.0512 2.90664 14.5935 2.34046C13.8182 2.13305 13.0228 2.02041 12.2256 2.00253ZM17.6569 17.6568C18.9081 16.4056 19.6582 14.8431 19.9072 13.2186C16.3611 15.2643 12.638 15.4664 10.5858 13.4142C8.53361 11.362 8.73568 7.63895 10.7814 4.09281C9.1569 4.34184 7.59434 5.09193 6.34315 6.34313C3.21895 9.46732 3.21895 14.5326 6.34315 17.6568C9.46734 20.781 14.5327 20.781 17.6569 17.6568Z" fill="currentColor"/>

</symbol>
<symbol id="more-vertical" viewBox="0 0 24 24">
  <path d="M14 6C14 7.10457 13.1046 8 12 8C10.8954 8 10 7.10457 10 6C10 4.89543 10.8954 4 12 4C13.1046 4 14 4.89543 14 6Z" fill="currentColor"/>
  <path d="M14 12C14 13.1046 13.1046 14 12 14C10.8954 14 10 13.1046 10 12C10 10.8954 10.8954 10 12 10C13.1046 10 14 10.8954 14 12Z" fill="currentColor"/>
  <path d="M14 18C14 19.1046 13.1046 20 12 20C10.8954 20 10 19.1046 10 18C10 16.8954 10.8954 16 12 16C13.1046 16 14 16.8954 14 18Z" fill="currentColor"/>

</symbol>
<symbol id="more" viewBox="0 0 24 24">
  <path d="M8 12C8 13.1046 7.10457 14 6 14C4.89543 14 4 13.1046 4 12C4 10.8954 4.89543 10 6 10C7.10457 10 8 10.8954 8 12Z" fill="currentColor"/>
  <path d="M14 12C14 13.1046 13.1046 14 12 14C10.8954 14 10 13.1046 10 12C10 10.8954 10.8954 10 12 10C13.1046 10 14 10.8954 14 12Z" fill="currentColor"/>
  <path d="M18 14C19.1046 14 20 13.1046 20 12C20 10.8954 19.1046 10 18 10C16.8954 10 16 10.8954 16 12C16 13.1046 16.8954 14 18 14Z" fill="currentColor"/>

</symbol>
<symbol id="options" viewBox="0 0 24 24">
  <path fill-rule="evenodd" clip-rule="evenodd" d="M7 3C8.86384 3 10.4299 4.27477 10.874 6H19V8H10.874C10.4299 9.72523 8.86384 11 7 11C4.79086 11 3 9.20914 3 7C3 4.79086 4.79086 3 7 3ZM7 9C8.10457 9 9 8.10457 9 7C9 5.89543 8.10457 5 7 5C5.89543 5 5 5.89543 5 7C5 8.10457 5.89543 9 7 9Z" fill="currentColor"/>
  <path fill-rule="evenodd" clip-rule="evenodd" d="M17 20C15.1362 20 13.5701 18.7252 13.126 17H5V15H13.126C13.5701 13.2748 15.1362 12 17 12C19.2091 12 21 13.7909 21 16C21 18.2091 19.2091 20 17 20ZM17 18C18.1046 18 19 17.1046 19 16C19 14.8954 18.1046 14 17 14C15.8954 14 15 14.8954 15 16C15 17.1046 15.8954 18 17 18Z" fill="currentColor"/>

</symbol>
<symbol id="pen" viewBox="0 0 24 24">
  <path fill-rule="evenodd" clip-rule="evenodd" d="M21.2635 2.29289C20.873 1.90237 20.2398 1.90237 19.8493 2.29289L18.9769 3.16525C17.8618 2.63254 16.4857 2.82801 15.5621 3.75165L4.95549 14.3582L10.6123 20.0151L21.2189 9.4085C22.1426 8.48486 22.338 7.1088 21.8053 5.99367L22.6777 5.12132C23.0682 4.7308 23.0682 4.09763 22.6777 3.70711L21.2635 2.29289ZM16.9955 10.8035L10.6123 17.1867L7.78392 14.3582L14.1671 7.9751L16.9955 10.8035ZM18.8138 8.98525L19.8047 7.99429C20.1953 7.60376 20.1953 6.9706 19.8047 6.58007L18.3905 5.16586C18 4.77534 17.3668 4.77534 16.9763 5.16586L15.9853 6.15683L18.8138 8.98525Z" fill="currentColor"/>
  <path d="M2 22.9502L4.12171 15.1717L9.77817 20.8289L2 22.9502Z" fill="currentColor"/>

</symbol>
<symbol id="pin" viewBox="0 0 24 24">
  <path fill-rule="evenodd" clip-rule="evenodd" d="M16.2721 10.2721C16.2721 12.4813 14.4813 14.2721 12.2721 14.2721C10.063 14.2721 8.27214 12.4813 8.27214 10.2721C8.27214 8.06298 10.063 6.27212 12.2721 6.27212C14.4813 6.27212 16.2721 8.06298 16.2721 10.2721ZM14.2721 10.2721C14.2721 11.3767 13.3767 12.2721 12.2721 12.2721C11.1676 12.2721 10.2721 11.3767 10.2721 10.2721C10.2721 9.16755 11.1676 8.27212 12.2721 8.27212C13.3767 8.27212 14.2721 9.16755 14.2721 10.2721Z" fill="currentColor"/>
  <path fill-rule="evenodd" clip-rule="evenodd" d="M5.79417 16.5183C2.19424 13.0909 2.05438 7.39409 5.48178 3.79417C8.90918 0.194243 14.6059 0.054383 18.2059 3.48178C21.8058 6.90918 21.9457 12.6059 18.5183 16.2059L12.3124 22.7241L5.79417 16.5183ZM17.0698 14.8268L12.243 19.8965L7.17324 15.0698C4.3733 12.404 4.26452 7.97318 6.93028 5.17324C9.59603 2.3733 14.0268 2.26452 16.8268 4.93028C19.6267 7.59603 19.7355 12.0268 17.0698 14.8268Z" fill="currentColor"/>

</symbol>
<symbol id="plus" viewBox="0 0 24 24">
  <path d="M12 4C11.4477 4 11 4.44772 11 5V11H5C4.44772 11 4 11.4477 4 12C4 12.5523 4.44772 13 5 13H11V19C11 19.5523 11.4477 20 12 20C12.5523 20 13 19.5523 13 19V13H19C19.5523 13 20 12.5523 20 12C20 11.4477 19.5523 11 19 11H13V5C13 4.44772 12.5523 4 12 4Z" fill="currentColor"/>

</symbol>
<symbol id="printer" viewBox="0 0 24 24">
  <path fill-rule="evenodd" clip-rule="evenodd" d="M8 4H16V6H8V4ZM18 6H22V18H18V22H6V18H2V6H6V2H18V6ZM20 16H18V14H6V16H4V8H20V16ZM8 16H16V20H8V16ZM8 10H6V12H8V10Z" fill="currentColor"/>

</symbol>
<symbol id="push-down" viewBox="0 0 24 24">
  <path d="M11.0001 1H13.0001V15.4853L16.2428 12.2427L17.657 13.6569L12.0001 19.3137L6.34326 13.6569L7.75748 12.2427L11.0001 15.4853V1Z" fill="currentColor"/>
  <path d="M18 20.2877H6V22.2877H18V20.2877Z" fill="currentColor"/>

</symbol>
<symbol id="push-left" viewBox="0 0 24 24">
  <path d="M22.2877 11.0001V13.0001H7.80237L11.045 16.2428L9.63079 17.657L3.97394 12.0001L9.63079 6.34326L11.045 7.75748L7.80236 11.0001H22.2877Z" fill="currentColor"/>
  <path d="M3 18V6H1V18H3Z" fill="currentColor"/>

</symbol>
<symbol id="push-right" viewBox="0 0 24 24">
  <path d="M1 12.9999V10.9999H15.4853L12.2427 7.75724L13.6569 6.34303L19.3137 11.9999L13.6569 17.6567L12.2427 16.2425L15.4853 12.9999H1Z" fill="currentColor"/>
  <path d="M20.2877 6V18H22.2877V6H20.2877Z" fill="currentColor"/>

</symbol>
<symbol id="push-up" viewBox="0 0 24 24">
  <path fill-rule="evenodd" clip-rule="evenodd" d="M11.0001 22.2877H13.0001V7.80237L16.2428 11.045L17.657 9.63079L12.0001 3.97394L6.34326 9.63079L7.75748 11.045L11.0001 7.80236V22.2877ZM18 3H6V1H18V3Z" fill="currentColor"/>

</symbol>
<symbol id="qr" viewBox="0 0 24 24">
  <path fill-rule="evenodd" clip-rule="evenodd" d="M9 3H3V9H5V5H9V3ZM3 21V15H5V19H9V21H3ZM15 3V5H19V9H21V3H15ZM19 15H21V21H15V19H19V15ZM7 7H11V11H7V7ZM7 13H11V17H7V13ZM17 7H13V11H17V7ZM13 13H17V17H13V13Z" fill="currentColor"/>

</symbol>
<symbol id="readme" viewBox="0 0 24 24">
  <path fill-rule="evenodd" clip-rule="evenodd" d="M4 5.5H9C10.1046 5.5 11 6.39543 11 7.5V16.5C11 17.0523 10.5523 17.5 10 17.5H4C3.44772 17.5 3 17.0523 3 16.5V6.5C3 5.94772 3.44772 5.5 4 5.5ZM14 19.5C13.6494 19.5 13.3128 19.4398 13 19.3293V19.5C13 20.0523 12.5523 20.5 12 20.5C11.4477 20.5 11 20.0523 11 19.5V19.3293C10.6872 19.4398 10.3506 19.5 10 19.5H4C2.34315 19.5 1 18.1569 1 16.5V6.5C1 4.84315 2.34315 3.5 4 3.5H9C10.1947 3.5 11.2671 4.02376 12 4.85418C12.7329 4.02376 13.8053 3.5 15 3.5H20C21.6569 3.5 23 4.84315 23 6.5V16.5C23 18.1569 21.6569 19.5 20 19.5H14ZM13 7.5V16.5C13 17.0523 13.4477 17.5 14 17.5H20C20.5523 17.5 21 17.0523 21 16.5V6.5C21 5.94772 20.5523 5.5 20 5.5H15C13.8954 5.5 13 6.39543 13 7.5ZM5 7.5H9V9.5H5V7.5ZM15 7.5H19V9.5H15V7.5ZM19 10.5H15V12.5H19V10.5ZM5 10.5H9V12.5H5V10.5ZM19 13.5H15V15.5H19V13.5ZM5 13.5H9V15.5H5V13.5Z" fill="currentColor"/>

</symbol>
<symbol id="reply" viewBox="0 0 24 24">
  <path d="M10.3623 15.529L8.94804 16.9432L3.99829 11.9934L8.94804 7.0437L10.3623 8.45791L7.86379 10.9564H16.0018C18.2109 10.9564 20.0018 12.7472 20.0018 14.9564V16.9564H18.0018V14.9564C18.0018 13.8518 17.1063 12.9564 16.0018 12.9564H7.78965L10.3623 15.529Z" fill="currentColor"/>

</symbol>
<symbol id="search" viewBox="0 0 24 24">
  <path fill-rule="evenodd" clip-rule="evenodd" d="M18.319 14.4326C20.7628 11.2941 20.542 6.75347 17.6569 3.86829C14.5327 0.744098 9.46734 0.744098 6.34315 3.86829C3.21895 6.99249 3.21895 12.0578 6.34315 15.182C9.22833 18.0672 13.769 18.2879 16.9075 15.8442C16.921 15.8595 16.9351 15.8745 16.9497 15.8891L21.1924 20.1317C21.5829 20.5223 22.2161 20.5223 22.6066 20.1317C22.9971 19.7412 22.9971 19.1081 22.6066 18.7175L18.364 14.4749C18.3493 14.4603 18.3343 14.4462 18.319 14.4326ZM16.2426 5.28251C18.5858 7.62565 18.5858 11.4246 16.2426 13.7678C13.8995 16.1109 10.1005 16.1109 7.75736 13.7678C5.41421 11.4246 5.41421 7.62565 7.75736 5.28251C10.1005 2.93936 13.8995 2.93936 16.2426 5.28251Z" fill="currentColor"/>

</symbol>
<symbol id="share" viewBox="0 0 24 24">
  <path d="M18 9C19.6569 9 21 7.65685 21 6C21 4.34315 19.6569 3 18 3C16.3431 3 15 4.34315 15 6C15 6.12549 15.0077 6.24919 15.0227 6.37063L8.08261 9.84066C7.54305 9.32015 6.80891 9 6 9C4.34315 9 3 10.3431 3 12C3 13.6569 4.34315 15 6 15C6.80891 15 7.54305 14.6798 8.08261 14.1593L15.0227 17.6294C15.0077 17.7508 15 17.8745 15 18C15 19.6569 16.3431 21 18 21C19.6569 21 21 19.6569 21 18C21 16.3431 19.6569 15 18 15C17.1911 15 16.457 15.3202 15.9174 15.8407L8.97733 12.3706C8.99229 12.2492 9 12.1255 9 12C9 11.8745 8.99229 11.7508 8.97733 11.6294L15.9174 8.15934C16.457 8.67985 17.1911 9 18 9Z" fill="currentColor"/>

</symbol>
<symbol id="shopping-bag" viewBox="0 0 24 24">
  <path fill-rule="evenodd" clip-rule="evenodd" d="M5 4H19C19.5523 4 20 4.44771 20 5V19C20 19.5523 19.5523 20 19 20H5C4.44772 20 4 19.5523 4 19V5C4 4.44772 4.44771 4 5 4ZM2 5C2 3.34315 3.34315 2 5 2H19C20.6569 2 22 3.34315 22 5V19C22 20.6569 20.6569 22 19 22H5C3.34315 22 2 20.6569 2 19V5ZM12 12C9.23858 12 7 9.31371 7 6H9C9 8.56606 10.6691 10 12 10C13.3309 10 15 8.56606 15 6H17C17 9.31371 14.7614 12 12 12Z" fill="currentColor"/>

</symbol>
<symbol id="shopping-cart" viewBox="0 0 24 24">
  <path fill-rule="evenodd" clip-rule="evenodd" d="M5.79166 2H1V4H4.2184L6.9872 16.6776H7V17H20V16.7519L22.1932 7.09095L22.5308 6H6.6552L6.08485 3.38852L5.79166 2ZM19.9869 8H7.092L8.62081 15H18.3978L19.9869 8Z" fill="currentColor"/>
  <path d="M10 22C11.1046 22 12 21.1046 12 20C12 18.8954 11.1046 18 10 18C8.89543 18 8 18.8954 8 20C8 21.1046 8.89543 22 10 22Z" fill="currentColor"/>
  <path d="M19 20C19 21.1046 18.1046 22 17 22C15.8954 22 15 21.1046 15 20C15 18.8954 15.8954 18 17 18C18.1046 18 19 18.8954 19 20Z" fill="currentColor"/>

</symbol>
<symbol id="sun" viewBox="0 0 24 24">
  <path fill-rule="evenodd" clip-rule="evenodd" d="M12 16C14.2091 16 16 14.2091 16 12C16 9.79086 14.2091 8 12 8C9.79086 8 8 9.79086 8 12C8 14.2091 9.79086 16 12 16ZM12 18C15.3137 18 18 15.3137 18 12C18 8.68629 15.3137 6 12 6C8.68629 6 6 8.68629 6 12C6 15.3137 8.68629 18 12 18Z" fill="currentColor"/>
  <path fill-rule="evenodd" clip-rule="evenodd" d="M11 0H13V4.06189C12.6724 4.02104 12.3387 4 12 4C11.6613 4 11.3276 4.02104 11 4.06189V0ZM7.0943 5.68018L4.22173 2.80761L2.80752 4.22183L5.6801 7.09441C6.09071 6.56618 6.56608 6.0908 7.0943 5.68018ZM4.06189 11H0V13H4.06189C4.02104 12.6724 4 12.3387 4 12C4 11.6613 4.02104 11.3276 4.06189 11ZM5.6801 16.9056L2.80751 19.7782L4.22173 21.1924L7.0943 18.3198C6.56608 17.9092 6.09071 17.4338 5.6801 16.9056ZM11 19.9381V24H13V19.9381C12.6724 19.979 12.3387 20 12 20C11.6613 20 11.3276 19.979 11 19.9381ZM16.9056 18.3199L19.7781 21.1924L21.1923 19.7782L18.3198 16.9057C17.9092 17.4339 17.4338 17.9093 16.9056 18.3199ZM19.9381 13H24V11H19.9381C19.979 11.3276 20 11.6613 20 12C20 12.3387 19.979 12.6724 19.9381 13ZM18.3198 7.0943L21.1923 4.22183L19.7781 2.80762L16.9056 5.6801C17.4338 6.09071 17.9092 6.56608 18.3198 7.0943Z" fill="currentColor"/>

</symbol>
<symbol id="support" viewBox="0 0 24 24">
  <path fill-rule="evenodd" clip-rule="evenodd" d="M12.2607 21.9966C12.174 21.9988 12.0871 22 12 22C11.9128 22 11.8259 21.9988 11.7393 21.9966C7.68318 21.8928 4.22762 19.3738 2.7573 15.8242C1.74192 13.3674 1.7476 10.588 2.77433 8.13481C3.27688 6.93672 4.00599 5.85718 4.90808 4.94979L4.94983 4.90804C5.85259 4.01056 6.92574 3.28429 8.1165 2.78202C10.5894 1.74123 13.3958 1.73933 15.87 2.77633C17.0688 3.27993 18.1488 4.01042 19.0562 4.91407L19.0859 4.94373C19.9989 5.86054 20.7351 6.95351 21.2392 8.16721C21.7279 9.34662 21.9812 10.6006 21.999 11.8573C21.9997 11.9047 22 11.9523 22 12C22 12.0506 21.9996 12.1012 21.9989 12.1516C21.9376 16.2743 19.3814 19.7925 15.7731 21.2637C14.6481 21.7213 13.4566 21.9656 12.2607 21.9966ZM14.0322 15.4464L16.906 18.3202C14.0281 20.5599 9.97192 20.5599 7.09402 18.3202L9.96779 15.4464C11.2175 16.1845 12.7825 16.1845 14.0322 15.4464ZM8.55358 14.0322L5.67981 16.906C3.44007 14.0281 3.44007 9.97192 5.67981 7.09402L8.55358 9.96779C7.81548 11.2175 7.81548 12.7825 8.55358 14.0322ZM10.0824 12.5694C10.0773 12.5523 10.0725 12.5351 10.0679 12.5179C9.97738 12.179 9.97738 11.821 10.0679 11.4821C10.1556 11.1537 10.3282 10.8434 10.5858 10.5858C10.8299 10.3417 11.1213 10.1739 11.4306 10.0824C11.4477 10.0773 11.4649 10.0725 11.4821 10.0679C11.821 9.97738 12.179 9.97737 12.5179 10.0679C12.8463 10.1556 13.1566 10.3282 13.4142 10.5858C13.6583 10.8299 13.8261 11.1213 13.9176 11.4306C13.9227 11.4477 13.9275 11.4649 13.9321 11.4821C14.0226 11.821 14.0226 12.179 13.9321 12.5179C13.8444 12.8462 13.6718 13.1566 13.4142 13.4142C13.1701 13.6583 12.8787 13.8261 12.5694 13.9176C12.5523 13.9227 12.5351 13.9275 12.5179 13.9321C12.179 14.0226 11.821 14.0226 11.4821 13.9321C11.1538 13.8444 10.8434 13.6718 10.5858 13.4142C10.3417 13.1701 10.1739 12.8787 10.0824 12.5694ZM14.0322 8.55357C12.7825 7.81548 11.2175 7.81548 9.96779 8.55357L7.09402 5.6798C9.97192 3.44007 14.0281 3.44007 16.906 5.6798L14.0322 8.55357ZM18.3202 16.906C20.5599 14.0281 20.5599 9.97192 18.3202 7.09402L15.4464 9.96779C16.1845 11.2175 16.1845 12.7825 15.4464 14.0322L18.3202 16.906Z" fill="currentColor"/>

</symbol>
<symbol id="trash" viewBox="0 0 24 24">
  <path fill-rule="evenodd" clip-rule="evenodd" d="M17 5V4C17 2.89543 16.1046 2 15 2H9C7.89543 2 7 2.89543 7 4V5H4C3.44772 5 3 5.44772 3 6C3 6.55228 3.44772 7 4 7H5V18C5 19.6569 6.34315 21 8 21H16C17.6569 21 19 19.6569 19 18V7H20C20.5523 7 21 6.55228 21 6C21 5.44772 20.5523 5 20 5H17ZM15 4H9V5H15V4ZM17 7H7V18C7 18.5523 7.44772 19 8 19H16C16.5523 19 17 18.5523 17 18V7Z" fill="currentColor"/>
  <path d="M9 9H11V17H9V9Z" fill="currentColor"/>
  <path d="M13 9H15V17H13V9Z" fill="currentColor"/>

</symbol>
<symbol id="unblock" viewBox="0 0 24 24">
  <path fill-rule="evenodd" clip-rule="evenodd" d="M5.63604 18.364C9.15076 21.8787 14.8492 21.8787 18.364 18.364C21.8787 14.8492 21.8787 9.15076 18.364 5.63604C14.8492 2.12132 9.15076 2.12132 5.63604 5.63604C2.12132 9.15076 2.12132 14.8492 5.63604 18.364ZM7.80749 17.6067C10.5493 19.6623 14.4562 19.4433 16.9497 16.9497C19.4433 14.4562 19.6623 10.5493 17.6067 7.80749L14.8284 10.5858C14.4379 10.9763 13.8047 10.9763 13.4142 10.5858C13.0237 10.1953 13.0237 9.5621 13.4142 9.17157L16.1925 6.39327C13.4507 4.33767 9.54384 4.55666 7.05025 7.05025C4.55666 9.54384 4.33767 13.4507 6.39327 16.1925L9.17157 13.4142C9.5621 13.0237 10.1953 13.0237 10.5858 13.4142C10.9763 13.8047 10.9763 14.4379 10.5858 14.8284L7.80749 17.6067Z" fill="currentColor"/>

</symbol>
<symbol id="unlock" viewBox="0 0 24 24">
  <path fill-rule="evenodd" clip-rule="evenodd" d="M19 7H17C17 4.79086 15.2091 3 13 3C10.7909 3 9 4.79086 9 7V10H18C19.6569 10 21 11.3431 21 13V19C21 20.6569 19.6569 22 18 22H6C4.34315 22 3 20.6569 3 19V13C3 11.3431 4.34315 10 6 10H7V7C7 3.68629 9.68629 1 13 1C16.3137 1 19 3.68629 19 7ZM18 12H6C5.44772 12 5 12.4477 5 13V19C5 19.5523 5.44772 20 6 20H18C18.5523 20 19 19.5523 19 19V13C19 12.4477 18.5523 12 18 12Z" fill="currentColor"/>

</symbol>
<symbol id="zoom-in" viewBox="0 0 24 24">
  <path fill-rule="evenodd" clip-rule="evenodd" d="M15.3431 15.2426C17.6863 12.8995 17.6863 9.1005 15.3431 6.75736C13 4.41421 9.20101 4.41421 6.85786 6.75736C4.51472 9.1005 4.51472 12.8995 6.85786 15.2426C9.20101 17.5858 13 17.5858 15.3431 15.2426ZM16.7574 5.34315C19.6425 8.22833 19.8633 12.769 17.4195 15.9075C17.4348 15.921 17.4498 15.9351 17.4645 15.9497L21.7071 20.1924C22.0976 20.5829 22.0976 21.2161 21.7071 21.6066C21.3166 21.9971 20.6834 21.9971 20.2929 21.6066L16.0503 17.364C16.0356 17.3493 16.0215 17.3343 16.008 17.319C12.8695 19.7628 8.32883 19.542 5.44365 16.6569C2.31946 13.5327 2.31946 8.46734 5.44365 5.34315C8.56785 2.21895 13.6332 2.21895 16.7574 5.34315ZM10.1005 7H12.1005V10H15.1005V12H12.1005V15H10.1005V12H7.10052V10H10.1005V7Z" fill="currentColor"/>

</symbol>
<symbol id="zoom-out" viewBox="0 0 24 24">
  <path fill-rule="evenodd" clip-rule="evenodd" d="M15.3431 15.2426C17.6863 12.8995 17.6863 9.1005 15.3431 6.75736C13 4.41421 9.20101 4.41421 6.85786 6.75736C4.51472 9.1005 4.51472 12.8995 6.85786 15.2426C9.20101 17.5858 13 17.5858 15.3431 15.2426ZM16.7574 5.34315C19.6425 8.22833 19.8633 12.769 17.4195 15.9075C17.4348 15.921 17.4498 15.9351 17.4645 15.9497L21.7071 20.1924C22.0976 20.5829 22.0976 21.2161 21.7071 21.6066C21.3166 21.9971 20.6834 21.9971 20.2929 21.6066L16.0503 17.364C16.0356 17.3493 16.0215 17.3343 16.008 17.319C12.8695 19.7628 8.32883 19.542 5.44365 16.6569C2.31946 13.5327 2.31946 8.46734 5.44365 5.34315C8.56785 2.21895 13.6332 2.21895 16.7574 5.34315ZM7.10052 10V12H15.1005V10L7.10052 10Z" fill="currentColor"/>

</symbol></svg>