<?xml version="1.0" encoding="UTF-8" standalone="no"?>
<!DOCTYPE svg PUBLIC "-//W3C//DTD SVG 1.1//EN" "http://www.w3.org/Graphics/SVG/1.1/DTD/svg11.dtd">
<svg width="100%" height="100%" viewBox="0 0 100 100" version="1.1" xmlns="http://www.w3.org/2000/svg" xmlns:xlink="http://www.w3.org/1999/xlink" xml:space="preserve" xmlns:serif="http://www.serif.com/" style="fill-rule:evenodd;clip-rule:evenodd;stroke-linejoin:round;stroke-miterlimit:2;">
    <path d="M53.604,85.409c-0.744,1.284 -2.12,2.076 -3.604,2.076c-1.484,0 -2.86,-0.792 -3.604,-2.076c-1.154,-1.989 -3.706,-2.667 -5.695,-1.513c-1.989,1.154 -2.667,3.706 -1.514,5.695c2.234,3.85 6.362,6.228 10.813,6.228c4.451,-0 8.579,-2.378 10.813,-6.228c1.153,-1.989 0.475,-4.541 -1.514,-5.695c-1.989,-1.154 -4.541,-0.476 -5.695,1.513Z" fill="currentColor"/>
    <path d="M81.644,53.069c-1.75,-6.407 -2.584,-13.029 -2.478,-19.669c0.037,-2.299 -1.8,-4.196 -4.099,-4.233c-2.3,-0.037 -4.196,1.8 -4.233,4.1c-0.119,7.426 0.814,14.833 2.772,21.998c0.606,2.218 2.899,3.527 5.117,2.921c2.218,-0.606 3.527,-2.899 2.921,-5.117Z" fill="currentColor"/>
    <path d="M22.102,24.856c-0.848,2.749 -1.275,5.61 -1.269,8.487c0,26.302 -10.644,34.023 -10.644,34.023c-1.528,1.019 -2.209,2.917 -1.677,4.675c0.532,1.757 2.152,2.959 3.988,2.959l58.333,-0c2.3,-0 4.167,-1.867 4.167,-4.167c-0,-2.299 -1.867,-4.166 -4.167,-4.166l-49.341,-0c3.747,-6.145 7.675,-16.58 7.675,-33.334c-0,-0.003 -0,-0.006 -0,-0.009c-0.005,-2.039 0.298,-4.066 0.898,-6.013c0.678,-2.198 -0.557,-4.532 -2.754,-5.209c-2.198,-0.678 -4.532,0.556 -5.209,2.754Z" fill="currentColor"/>
    <path d="M79.167,33.34c-0,-0.015 -0,-0.029 -0,-0.044c-0,-16 -13.167,-29.166 -29.167,-29.166c-5.761,-0 -11.395,1.707 -16.188,4.904c-1.912,1.276 -2.429,3.866 -1.153,5.779c1.276,1.912 3.866,2.429 5.779,1.153c3.423,-2.284 7.447,-3.503 11.562,-3.503c11.429,-0 20.833,9.404 20.833,20.833c0,0.011 0,0.021 0,0.031c-0.003,2.3 1.861,4.17 4.161,4.173c2.299,0.003 4.169,-1.861 4.173,-4.16Z" fill="currentColor"/>
    <path d="M1.22,7.113l91.667,91.667c1.626,1.626 4.267,1.626 5.893,-0c1.626,-1.626 1.626,-4.267 -0,-5.893l-91.667,-91.667c-1.626,-1.626 -4.267,-1.626 -5.893,0c-1.626,1.626 -1.626,4.267 0,5.893Z" fill="currentColor"/>
</svg>