<?xml version="1.0" encoding="UTF-8" standalone="no"?>
<!DOCTYPE svg PUBLIC "-//W3C//DTD SVG 1.1//EN" "http://www.w3.org/Graphics/SVG/1.1/DTD/svg11.dtd">
<svg width="100%" height="100%" viewBox="0 0 24 24" version="1.1" xmlns="http://www.w3.org/2000/svg" xmlns:xlink="http://www.w3.org/1999/xlink" xml:space="preserve" xmlns:serif="http://www.serif.com/" style="fill-rule:evenodd;clip-rule:evenodd;stroke-linejoin:round;stroke-miterlimit:2;">
    <g transform="matrix(0.87018,0,0,0.87018,1.55752,1.55709)">
        <path d="M7.293,17.707L11.293,21.707C11.683,22.098 12.317,22.098 12.707,21.707L16.707,17.707C17.097,17.317 17.097,16.683 16.707,16.293C16.317,15.903 15.683,15.903 15.293,16.293L12,19.586C12,19.586 8.707,16.293 8.707,16.293C8.317,15.903 7.683,15.903 7.293,16.293C6.903,16.683 6.903,17.317 7.293,17.707Z" fill="currentColor"/>
    </g>
    <g transform="matrix(0.87018,0,0,0.87018,1.55752,1.55709)">
        <path d="M11,12L11,21C11,21.552 11.448,22 12,22C12.552,22 13,21.552 13,21L13,12C13,11.448 12.552,11 12,11C11.448,11 11,11.448 11,12Z" fill="currentColor"/>
    </g>
    <g transform="matrix(0.87018,0,0,0.87018,1.55752,1.55709)">
        <path d="M21.455,18.908C23.052,17.785 24.004,15.952 24.004,14C24.004,10.708 21.295,8 18.004,8L17.48,8C16.225,4.436 12.823,1.988 8.991,1.988C4.054,1.988 -0.009,6.051 -0.009,10.988C-0.009,13.185 0.795,15.308 2.251,16.953C2.617,17.366 3.249,17.405 3.663,17.039C4.076,16.673 4.115,16.041 3.749,15.627C2.617,14.348 1.991,12.697 1.991,10.988C1.991,7.148 5.151,3.988 8.991,3.988C12.177,3.988 14.98,6.163 15.771,9.249C15.885,9.691 16.283,10 16.74,10L18.004,10C20.198,10 22.004,11.806 22.004,14C22.004,15.301 21.369,16.524 20.305,17.272C19.853,17.589 19.745,18.214 20.062,18.665C20.379,19.117 21.004,19.225 21.455,18.908Z" fill="currentColor"/>
    </g>
</svg>
