<?xml version="1.0" encoding="UTF-8" standalone="no"?>
<svg width="100%" height="100%" viewBox="0 0 24 24" version="1.1" xmlns="http://www.w3.org/2000/svg" xmlns:xlink="http://www.w3.org/1999/xlink" xml:space="preserve" xmlns:serif="http://www.serif.com/" style="fill-rule:evenodd;clip-rule:evenodd;stroke-linejoin:round;stroke-miterlimit:2;">
    <path d="M18.051,1.001L18,1L15,1C11.708,1 9,3.708 9,7C9,7 9,9 9,9C9,9 7,9 7,9C6.448,9 6,9.448 6,10L6,14C6,14.552 6.448,15 7,15L9,15C9,15 9,22 9,22C9,22.552 9.448,23 10,23L14,23C14.552,23 15,22.552 15,22L15,15C15,15 17,15 17,15C17.459,15 17.859,14.688 17.97,14.243L18.97,10.243C19.045,9.944 18.978,9.627 18.788,9.385C18.599,9.142 18.308,9 18,9L15,9C15,9 15,7 15,7L18,7C18.552,7 19,6.552 19,6L19,2C19,1.465 18.58,1.028 18.051,1.001ZM17,3L17,5C17,5 15,5 15,5C13.903,5 13,5.903 13,7L13,10C13,10.552 13.448,11 14,11L16.719,11C16.719,11 16.219,13 16.219,13C16.219,13 14,13 14,13C13.448,13 13,13.448 13,14L13,21C13,21 11,21 11,21C11,21 11,14 11,14C11,13.448 10.552,13 10,13L8,13C8,13 8,11 8,11C8,11 10,11 10,11C10.552,11 11,10.552 11,10L11,7C11,4.806 12.806,3 15,3L17,3Z" fill="currentColor"/>
</svg>
