<?xml version="1.0" encoding="UTF-8" standalone="no"?>
<!DOCTYPE svg PUBLIC "-//W3C//DTD SVG 1.1//EN" "http://www.w3.org/Graphics/SVG/1.1/DTD/svg11.dtd">
<svg width="100%" height="100%" viewBox="0 0 24 24" version="1.1" xmlns="http://www.w3.org/2000/svg" xmlns:xlink="http://www.w3.org/1999/xlink" xml:space="preserve" xmlns:serif="http://www.serif.com/" style="fill-rule:evenodd;clip-rule:evenodd;stroke-linejoin:round;stroke-miterlimit:2;">
    <path d="M2.386,8.211C2.142,8.4 2,8.691 2,9L2,20C2,21.646 3.354,23 5,23L19,23C20.646,23 22,21.646 22,20L22,9C22,8.691 21.858,8.4 21.614,8.211L12.614,1.211C12.253,0.93 11.747,0.93 11.386,1.211L2.386,8.211ZM4,9.489L12,3.267C12,3.267 20,9.489 20,9.489C20,9.489 20,20 20,20C20,20.549 19.549,21 19,21C19,21 5,21 5,21C4.451,21 4,20.549 4,20L4,9.489Z" fill="currentColor"/>
    <path d="M10,22L10,13C10,13 14,13 14,13C14,13 14,22 14,22C14,22.552 14.448,23 15,23C15.552,23 16,22.552 16,22L16,12C16,11.448 15.552,11 15,11L9,11C8.448,11 8,11.448 8,12L8,22C8,22.552 8.448,23 9,23C9.552,23 10,22.552 10,22Z" fill="currentColor"/>
</svg>
