<?xml version="1.0" encoding="UTF-8" standalone="no"?>
<svg width="100%" height="100%" viewBox="0 0 24 24" version="1.1" xmlns="http://www.w3.org/2000/svg" xmlns:xlink="http://www.w3.org/1999/xlink" xml:space="preserve" xmlns:serif="http://www.serif.com/" style="fill-rule:evenodd;clip-rule:evenodd;stroke-linejoin:round;stroke-miterlimit:2;">
    <path d="M23,7C23,3.689 20.311,1 17,1L7,1C3.689,1 1,3.689 1,7L1,17C1,20.311 3.689,23 7,23L17,23C20.311,23 23,20.311 23,17L23,7ZM21,7L21,17C21,19.208 19.208,21 17,21C17,21 7,21 7,21C4.792,21 3,19.208 3,17L3,7C3,4.792 4.792,3 7,3L17,3C19.208,3 21,4.792 21,7ZM16.989,11.223C16.667,9.051 14.949,7.333 12.777,7.011C12.534,6.975 12.289,6.957 12.043,6.957C9.3,6.957 7.043,9.214 7.043,11.957C7.043,14.7 9.3,16.957 12.043,16.957C14.786,16.957 17.043,14.7 17.043,11.957C17.043,11.711 17.025,11.466 16.989,11.223ZM15.011,11.517C15.032,11.662 15.043,11.809 15.043,11.957C15.043,13.602 13.689,14.957 12.043,14.957C10.398,14.957 9.043,13.602 9.043,11.957C9.043,10.311 10.398,8.957 12.043,8.957C12.191,8.957 12.338,8.968 12.483,8.989C13.787,9.182 14.818,10.213 15.011,11.517ZM17.5,5.534C18.033,5.534 18.466,5.967 18.466,6.5C18.466,7.033 18.033,7.466 17.5,7.466C16.967,7.466 16.534,7.033 16.534,6.5C16.534,5.967 16.967,5.534 17.5,5.534Z" fill="currentColor"/>
</svg>
