<?xml version="1.0" encoding="UTF-8" standalone="no"?>
<!DOCTYPE svg PUBLIC "-//W3C//DTD SVG 1.1//EN" "http://www.w3.org/Graphics/SVG/1.1/DTD/svg11.dtd">
<svg width="100%" height="100%" viewBox="0 0 24 24" version="1.1" xmlns="http://www.w3.org/2000/svg" xmlns:xlink="http://www.w3.org/1999/xlink" xml:space="preserve" xmlns:serif="http://www.serif.com/" style="fill-rule:evenodd;clip-rule:evenodd;stroke-linejoin:round;stroke-miterlimit:2;">
    <g transform="matrix(0.906117,0,0,0.906117,1.1266,1.1266)">
        <path d="M11,3C11,2.448 10.552,2 10,2L3,2C2.448,2 2,2.448 2,3L2,10C2,10.552 2.448,11 3,11L10,11C10.552,11 11,10.552 11,10L11,3ZM9,4L9,9C9,9 4,9 4,9C4,9 4,4 4,4L9,4Z" fill="currentColor"/>
    </g>
    <g transform="matrix(0.906117,0,0,0.906117,1.1266,1.1266)">
        <path d="M22,3C22,2.448 21.552,2 21,2L14,2C13.448,2 13,2.448 13,3L13,10C13,10.552 13.448,11 14,11L21,11C21.552,11 22,10.552 22,10L22,3ZM20,4L20,9C20,9 15,9 15,9C15,9 15,4 15,4L20,4Z" fill="currentColor"/>
    </g>
    <g transform="matrix(0.906117,0,0,0.906117,1.1266,1.1266)">
        <path d="M22,14C22,13.448 21.552,13 21,13L14,13C13.448,13 13,13.448 13,14L13,21C13,21.552 13.448,22 14,22L21,22C21.552,22 22,21.552 22,21L22,14ZM20,15L20,20C20,20 15,20 15,20C15,20 15,15 15,15L20,15Z" fill="currentColor"/>
    </g>
    <g transform="matrix(0.906117,0,0,0.906117,1.1266,1.1266)">
        <path d="M11,14C11,13.448 10.552,13 10,13L3,13C2.448,13 2,13.448 2,14L2,21C2,21.552 2.448,22 3,22L10,22C10.552,22 11,21.552 11,21L11,14ZM9,15L9,20C9,20 4,20 4,20C4,20 4,15 4,15L9,15Z" fill="currentColor"/>
    </g>
</svg>
