<?xml version="1.0" encoding="UTF-8" standalone="no"?>
<!DOCTYPE svg PUBLIC "-//W3C//DTD SVG 1.1//EN" "http://www.w3.org/Graphics/SVG/1.1/DTD/svg11.dtd">
<svg width="100%" height="100%" viewBox="0 0 24 24" version="1.1" xmlns="http://www.w3.org/2000/svg" xmlns:xlink="http://www.w3.org/1999/xlink" xml:space="preserve" xmlns:serif="http://www.serif.com/" style="fill-rule:evenodd;clip-rule:evenodd;stroke-linejoin:round;stroke-miterlimit:2;">
    <g transform="matrix(0.878168,0,0,0.878168,1.46884,1.4576)">
        <path d="M23,16.929C23.029,15.42 21.915,14.111 20.42,13.9C20.417,13.899 20.414,13.899 20.411,13.899C19.525,13.782 18.656,13.565 17.82,13.253C16.727,12.843 15.488,13.107 14.657,13.929L13.936,14.65C12.091,13.474 10.526,11.909 9.35,10.064L10.071,9.343C10.893,8.512 11.157,7.273 10.746,6.178C10.435,5.344 10.218,4.475 10.101,3.589C10.101,3.586 10.101,3.583 10.1,3.58C9.89,2.096 8.599,0.985 7.1,1C7.11,1 4.11,1 4.11,1C4.11,1 4.109,1 4.109,1C2.464,1.002 1.112,2.355 1.112,4L1.126,4.286C1.47,7.531 2.574,10.65 4.348,13.39C5.961,15.927 8.113,18.079 10.65,19.692C13.377,21.459 16.481,22.563 19.712,22.914L20,22.928C21.646,22.928 23,21.574 23,19.928C23,19.924 23,19.92 23,19.916C23,19.92 23,16.929 23,16.929L23,16.929ZM21,16.895L21,19.928C21,20.477 20.549,20.928 20,20.928C19.974,20.928 19.949,20.927 19.923,20.925C16.999,20.606 14.196,19.608 11.734,18.011C11.732,18.009 11.729,18.008 11.726,18.006C9.434,16.549 7.491,14.606 6.034,12.314C6.032,12.311 6.031,12.309 6.029,12.306C4.427,9.832 3.428,7.016 3.116,4.085C3.113,4.057 3.112,4.028 3.112,4C3.112,3.452 3.563,3.001 4.111,3L7.12,3C7.619,2.995 8.049,3.365 8.12,3.859C8.256,4.891 8.509,5.904 8.873,6.88C8.873,6.88 8.874,6.881 8.874,6.882C9.011,7.246 8.923,7.659 8.65,7.936C8.65,7.936 7.383,9.203 7.383,9.203C7.065,9.521 6.998,10.013 7.221,10.404C8.733,13.064 10.936,15.267 13.596,16.779C13.987,17.002 14.479,16.935 14.797,16.617L16.064,15.35C16.341,15.077 16.754,14.989 17.118,15.126C17.119,15.126 17.12,15.127 17.12,15.127C18.096,15.491 19.109,15.744 20.142,15.88C20.641,15.952 21.013,16.39 21,16.895Z" fill="currentColor"/>
    </g>
</svg>
