<?xml version="1.0" encoding="UTF-8" standalone="no"?>
<!DOCTYPE svg PUBLIC "-//W3C//DTD SVG 1.1//EN" "http://www.w3.org/Graphics/SVG/1.1/DTD/svg11.dtd">
<svg width="100%" height="100%" viewBox="0 0 24 24" version="1.1" xmlns="http://www.w3.org/2000/svg" xmlns:xlink="http://www.w3.org/1999/xlink" xml:space="preserve" xmlns:serif="http://www.serif.com/" style="fill-rule:evenodd;clip-rule:evenodd;stroke-linejoin:round;stroke-miterlimit:2;">
    <path d="M17.653,7.347C19.152,8.847 19.995,10.882 19.995,13.003C19.995,17.392 16.384,21.003 11.995,21.003C7.606,21.003 3.995,17.392 3.995,13.003C3.995,10.882 4.838,8.847 6.337,7.347C6.727,6.957 6.727,6.323 6.337,5.933C5.947,5.543 5.313,5.543 4.923,5.933C3.049,7.808 1.995,10.352 1.995,13.003C1.995,18.489 6.509,23.003 11.995,23.003C17.481,23.003 21.995,18.489 21.995,13.003C21.995,10.352 20.941,7.808 19.067,5.933C18.677,5.543 18.043,5.543 17.653,5.933C17.263,6.323 17.263,6.957 17.653,7.347ZM11,2L11,12C11,12.552 11.448,13 12,13C12.552,13 13,12.552 13,12L13,2C13,1.448 12.552,1 12,1C11.448,1 11,1.448 11,2Z" fill="currentColor"/>
</svg>
