<?xml version="1.0" encoding="UTF-8" standalone="no"?>
<!DOCTYPE svg PUBLIC "-//W3C//DTD SVG 1.1//EN" "http://www.w3.org/Graphics/SVG/1.1/DTD/svg11.dtd">
<svg width="100%" height="100%" viewBox="0 0 24 24" version="1.1" xmlns="http://www.w3.org/2000/svg" xmlns:xlink="http://www.w3.org/1999/xlink" xml:space="preserve" xmlns:serif="http://www.serif.com/" style="fill-rule:evenodd;clip-rule:evenodd;stroke-linejoin:round;stroke-miterlimit:2;">
    <g transform="matrix(0.901262,0,0,0.901262,1.20053,1.18484)">
        <path d="M19.666,1L5.72,1C4.242,0.983 2.955,2.078 2.731,3.55C2.732,3.548 1.352,12.548 1.352,12.548L1.317,13C1.317,14.646 2.672,16 4.317,16L9,16L9,19C9,21.194 10.806,23 13,23C13.395,23 13.753,22.767 13.914,22.406L17.65,14L19.666,14C21.33,14.023 22.768,12.785 22.991,11.134C22.997,11.09 23,11.045 23,11L23,4C23,3.955 22.997,3.91 22.991,3.866C22.768,2.215 21.33,0.977 19.666,1ZM11,15C11,14.448 10.552,14 10,14L4.317,14C3.769,14 3.317,13.549 3.317,13C3.317,12.95 3.321,12.9 3.329,12.85L4.709,3.85C4.783,3.359 5.212,2.994 5.709,3L16,3L16,12.788L12.393,20.904C11.588,20.645 11,19.886 11,19L11,15ZM18,3L18,12L19.688,12C20.328,12.011 20.885,11.551 21,10.923C21,10.923 21,4.077 20.999,4.074C20.885,3.449 20.328,2.989 19.688,3L18,3Z" fill="currentColor"/>
    </g>
</svg>
