<?xml version="1.0" encoding="UTF-8" standalone="no"?>
<svg width="100%" height="100%" viewBox="0 0 24 24" version="1.1" xmlns="http://www.w3.org/2000/svg" xmlns:xlink="http://www.w3.org/1999/xlink" xml:space="preserve" xmlns:serif="http://www.serif.com/" style="fill-rule:evenodd;clip-rule:evenodd;stroke-linejoin:round;stroke-miterlimit:2;">
    <path d="M11,7.506C8.134,7.29 5.488,5.803 3.818,3.425C3.263,2.635 2.625,2.48 2.119,2.565C1.777,2.622 1.433,2.805 1.138,3.159C0.892,3.455 0.661,3.915 0.507,4.515C-0.202,7.265 0.551,13.613 5.931,17.025C4.408,17.73 2.732,18.068 1.04,18.001C0.577,17.982 0.162,18.284 0.037,18.73C-0.088,19.176 0.11,19.649 0.514,19.874C6.309,23.094 12.875,22.412 17.201,18.716C20.087,16.251 22,12.439 22,7.5L21.977,7.01C22.942,5.94 23.629,4.643 23.972,3.237C24.07,2.832 23.907,2.408 23.563,2.173C23.218,1.939 22.764,1.943 22.424,2.183C21.715,2.682 20.945,3.086 20.133,3.385C19.134,2.492 17.834,1.99 16.48,1.99C13.473,1.99 11,4.464 11,7.47L11,7.506ZM2.496,5.001C4.761,7.933 8.303,9.626 12.026,9.53C12.568,9.516 13,9.072 13,8.53L13,7.47C13,5.561 14.571,3.99 16.48,3.99C17.486,3.99 18.445,4.427 19.105,5.186C19.364,5.483 19.772,5.601 20.148,5.488C20.379,5.418 20.608,5.341 20.834,5.258L20.836,5.257C20.647,5.504 20.441,5.738 20.218,5.958C19.98,6.192 19.875,6.53 19.938,6.858C19.978,7.07 19.999,7.286 20,7.502C19.999,11.762 18.392,15.069 15.903,17.196C13.012,19.665 8.962,20.534 4.96,19.515C6.236,19.148 7.452,18.581 8.562,17.827C8.862,17.623 9.028,17.273 8.996,16.911C8.964,16.549 8.738,16.234 8.406,16.086C3.483,13.898 2.153,9.112 2.281,6.207C2.3,5.796 2.401,5.344 2.496,5.001Z" fill="currentColor"/>
</svg>
