<?xml version="1.0" encoding="UTF-8" standalone="no"?>
<!DOCTYPE svg PUBLIC "-//W3C//DTD SVG 1.1//EN" "http://www.w3.org/Graphics/SVG/1.1/DTD/svg11.dtd">
<svg width="100%" height="100%" viewBox="0 0 24 24" version="1.1" xmlns="http://www.w3.org/2000/svg" xmlns:xlink="http://www.w3.org/1999/xlink" xml:space="preserve" xmlns:serif="http://www.serif.com/" style="fill-rule:evenodd;clip-rule:evenodd;stroke-linejoin:round;stroke-miterlimit:2;">
    <g transform="matrix(0.867632,0,0,0.867632,1.58785,1.58858)">
        <path d="M16.707,15.293L12.707,11.293C12.317,10.902 11.683,10.902 11.293,11.293L7.293,15.293C6.903,15.683 6.903,16.317 7.293,16.707C7.683,17.097 8.317,17.097 8.707,16.707L12,13.414C12,13.414 15.293,16.707 15.293,16.707C15.683,17.097 16.317,17.097 16.707,16.707C17.097,16.317 17.097,15.683 16.707,15.293Z" fill="currentColor"/>
    </g>
    <g transform="matrix(0.867632,0,0,0.867632,1.58785,1.58858)">
        <path d="M11,12L11,21C11,21.552 11.448,22 12,22C12.552,22 13,21.552 13,21L13,12C13,11.448 12.552,11 12,11C11.448,11 11,11.448 11,12Z" fill="currentColor"/>
    </g>
    <g transform="matrix(0.867632,0,0,0.867632,1.58785,1.58858)">
        <path d="M20.869,19.268C22.794,18.218 23.997,16.193 23.997,14C23.997,10.71 21.291,8.002 18.001,8L17.479,8C16.219,4.443 12.821,2.002 8.995,2.002C4.057,2.002 -0.005,6.065 -0.005,11.002C-0.005,13.197 0.797,15.318 2.251,16.962C2.616,17.376 3.249,17.415 3.662,17.049C4.076,16.684 4.115,16.051 3.749,15.638C2.619,14.359 1.995,12.709 1.995,11.002C1.995,7.162 5.155,4.002 8.995,4.002C12.176,4.002 14.976,6.171 15.772,9.25C15.886,9.692 16.284,10 16.74,10L17.999,10C20.193,10.001 21.997,11.807 21.997,14C21.997,15.462 21.195,16.812 19.911,17.512C19.427,17.776 19.248,18.384 19.512,18.869C19.776,19.353 20.384,19.532 20.869,19.268Z" fill="currentColor"/>
    </g>
    <g transform="matrix(0.867632,0,0,0.867632,1.58785,1.58858)">
        <path d="M16.707,15.293L12.707,11.293C12.317,10.902 11.683,10.902 11.293,11.293L7.293,15.293C6.903,15.683 6.903,16.317 7.293,16.707C7.683,17.097 8.317,17.097 8.707,16.707L12,13.414C12,13.414 15.293,16.707 15.293,16.707C15.683,17.097 16.317,17.097 16.707,16.707C17.097,16.317 17.097,15.683 16.707,15.293Z" fill="currentColor"/>
    </g>
</svg>
