<?xml version="1.0" encoding="UTF-8" standalone="no"?>
<!DOCTYPE svg PUBLIC "-//W3C//DTD SVG 1.1//EN" "http://www.w3.org/Graphics/SVG/1.1/DTD/svg11.dtd">
<svg width="100%" height="100%" viewBox="0 0 24 24" version="1.1" xmlns="http://www.w3.org/2000/svg" xmlns:xlink="http://www.w3.org/1999/xlink" xml:space="preserve" xmlns:serif="http://www.serif.com/" style="fill-rule:evenodd;clip-rule:evenodd;stroke-linejoin:round;stroke-miterlimit:2;">
    <path d="M23.524,6.242C23.52,6.221 23.515,6.199 23.51,6.177C23.182,4.865 22.173,3.826 20.872,3.458C20.861,3.454 20.849,3.451 20.837,3.449C19.07,3.017 12,3 12,3C12,3 4.914,3.02 3.142,3.494C3.137,3.495 3.132,3.496 3.128,3.498C1.827,3.866 0.818,4.905 0.49,6.217C0.485,6.239 0.48,6.261 0.476,6.283C0.151,8.086 -0.009,9.916 -0,11.749C-0.011,13.596 0.148,15.44 0.476,17.258C0.482,17.29 0.489,17.322 0.498,17.354C0.86,18.624 1.862,19.616 3.136,19.965C3.138,19.965 3.14,19.966 3.142,19.966C4.914,20.44 12,20.46 12,20.46C12,20.46 19.086,20.44 20.858,19.966C20.863,19.965 20.868,19.964 20.872,19.962C22.173,19.594 23.182,18.555 23.51,17.243C23.515,17.221 23.52,17.199 23.524,17.177C23.847,15.387 24.006,13.571 24,11.751C24.011,9.904 23.852,8.06 23.524,6.242ZM21.562,6.633C21.864,8.32 22.011,10.03 22,11.744C22,11.747 22,11.75 22,11.754C22.006,13.437 21.86,15.117 21.564,16.775C21.401,17.389 20.934,17.864 20.334,18.036C18.652,18.48 12,18.46 12,18.46C12,18.46 5.336,18.48 3.662,18.035C3.079,17.875 2.617,17.428 2.436,16.854C2.135,15.168 1.989,13.463 2,11.756C2,11.753 2,11.749 2,11.745C1.992,10.049 2.137,8.355 2.435,6.686C2.599,6.071 3.066,5.596 3.666,5.424C5.348,4.98 12,5 12,5C12,5 18.607,4.983 20.331,5.384C20.938,5.561 21.4,6.033 21.561,6.629L21.562,6.633ZM8.75,15.02C8.75,15.376 8.939,15.705 9.247,15.884C9.555,16.063 9.935,16.065 10.244,15.889L15.994,12.619C16.307,12.442 16.5,12.11 16.5,11.75C16.5,11.39 16.307,11.058 15.994,10.881L10.244,7.611C9.935,7.435 9.555,7.437 9.247,7.616C8.939,7.795 8.75,8.124 8.75,8.48L8.75,15.02ZM10.75,13.301L10.75,10.199C10.75,10.199 13.477,11.75 13.477,11.75L10.75,13.301Z" fill="currentColor"/>
</svg>
