<?xml version="1.0" encoding="utf-8"?>
<svg xmlns="http://www.w3.org/2000/svg">
<symbol id="chevron-down" viewBox="0 0 24 24">
  <path d="M6.34317 7.75732L4.92896 9.17154L12 16.2426L19.0711 9.17157L17.6569 7.75735L12 13.4142L6.34317 7.75732Z" fill="currentColor"/>

</symbol>
<symbol id="chevron-left" viewBox="0 0 24 24">
  <path d="M16.2426 6.34317L14.8284 4.92896L7.75739 12L14.8285 19.0711L16.2427 17.6569L10.5858 12L16.2426 6.34317Z" fill="currentColor"/>

</symbol>
<symbol id="chevron-right" viewBox="0 0 24 24">
  <path d="M10.5858 6.34317L12 4.92896L19.0711 12L12 19.0711L10.5858 17.6569L16.2427 12L10.5858 6.34317Z" fill="currentColor"/>

</symbol>
<symbol id="chevron-up" viewBox="0 0 24 24">
  <path d="M17.6569 16.2427L19.0711 14.8285L12.0001 7.75739L4.92896 14.8285L6.34317 16.2427L12.0001 10.5858L17.6569 16.2427Z" fill="currentColor"/>

</symbol>
<symbol id="close" viewBox="0 0 24 24">
  <path d="M6.2253 4.81108C5.83477 4.42056 5.20161 4.42056 4.81108 4.81108C4.42056 5.20161 4.42056 5.83477 4.81108 6.2253L10.5858 12L4.81114 17.7747C4.42062 18.1652 4.42062 18.7984 4.81114 19.1889C5.20167 19.5794 5.83483 19.5794 6.22535 19.1889L12 13.4142L17.7747 19.1889C18.1652 19.5794 18.7984 19.5794 19.1889 19.1889C19.5794 18.7984 19.5794 18.1652 19.1889 17.7747L13.4142 12L19.189 6.2253C19.5795 5.83477 19.5795 5.20161 19.189 4.81108C18.7985 4.42056 18.1653 4.42056 17.7748 4.81108L12 10.5858L6.2253 4.81108Z" fill="currentColor"/>

</symbol>
<symbol id="menu-grid-r" viewBox="0 0 24 24">
  <path d="M4 4H8V8H4V4Z" fill="currentColor"/>
  <path d="M4 10H8V14H4V10Z" fill="currentColor"/>
  <path d="M8 16H4V20H8V16Z" fill="currentColor"/>
  <path d="M10 4H14V8H10V4Z" fill="currentColor"/>
  <path d="M14 10H10V14H14V10Z" fill="currentColor"/>
  <path d="M10 16H14V20H10V16Z" fill="currentColor"/>
  <path d="M20 4H16V8H20V4Z" fill="currentColor"/>
  <path d="M16 10H20V14H16V10Z" fill="currentColor"/>
  <path d="M20 16H16V20H20V16Z" fill="currentColor"/>

</symbol>
<symbol id="menu-left" viewBox="0 0 24 24">
  <path d="M2 5.99519C2 5.44556 2.44556 5 2.99519 5H11.0048C11.5544 5 12 5.44556 12 5.99519C12 6.54482 11.5544 6.99039 11.0048 6.99039H2.99519C2.44556 6.99039 2 6.54482 2 5.99519Z" fill="currentColor"/>
  <path d="M2 11.9998C2 11.4501 2.44556 11.0046 2.99519 11.0046H21.0048C21.5544 11.0046 22 11.4501 22 11.9998C22 12.5494 21.5544 12.9949 21.0048 12.9949H2.99519C2.44556 12.9949 2 12.5494 2 11.9998Z" fill="currentColor"/>
  <path d="M2.99519 17.0096C2.44556 17.0096 2 17.4552 2 18.0048C2 18.5544 2.44556 19 2.99519 19H15.0048C15.5544 19 16 18.5544 16 18.0048C16 17.4552 15.5544 17.0096 15.0048 17.0096H2.99519Z" fill="currentColor"/>

</symbol>
<symbol id="menu-right" viewBox="0 0 24 24">
  <path d="M22 18.0048C22 18.5544 21.5544 19 21.0048 19H12.9952C12.4456 19 12 18.5544 12 18.0048C12 17.4552 12.4456 17.0096 12.9952 17.0096H21.0048C21.5544 17.0096 22 17.4552 22 18.0048Z" fill="currentColor"/>
  <path d="M22 12.0002C22 12.5499 21.5544 12.9954 21.0048 12.9954H2.99519C2.44556 12.9954 2 12.5499 2 12.0002C2 11.4506 2.44556 11.0051 2.99519 11.0051H21.0048C21.5544 11.0051 22 11.4506 22 12.0002Z" fill="currentColor"/>
  <path d="M21.0048 6.99039C21.5544 6.99039 22 6.54482 22 5.99519C22 5.44556 21.5544 5 21.0048 5H8.99519C8.44556 5 8 5.44556 8 5.99519C8 6.54482 8.44556 6.99039 8.99519 6.99039H21.0048Z" fill="currentColor"/>

</symbol>
<symbol id="menu" viewBox="0 0 24 24">
  <path d="M2 6C2 5.44772 2.44772 5 3 5H21C21.5523 5 22 5.44772 22 6C22 6.55228 21.5523 7 21 7H3C2.44772 7 2 6.55228 2 6Z" fill="currentColor"/>
  <path d="M2 12.0322C2 11.4799 2.44772 11.0322 3 11.0322H21C21.5523 11.0322 22 11.4799 22 12.0322C22 12.5845 21.5523 13.0322 21 13.0322H3C2.44772 13.0322 2 12.5845 2 12.0322Z" fill="currentColor"/>
  <path d="M3 17.0645C2.44772 17.0645 2 17.5122 2 18.0645C2 18.6167 2.44772 19.0645 3 19.0645H21C21.5523 19.0645 22 18.6167 22 18.0645C22 17.5122 21.5523 17.0645 21 17.0645H3Z" fill="currentColor"/>

</symbol>
<symbol id="moon" viewBox="0 0 24 24">
  <path fill-rule="evenodd" clip-rule="evenodd" d="M12.2256 2.00253C9.59172 1.94346 6.93894 2.9189 4.92893 4.92891C1.02369 8.83415 1.02369 15.1658 4.92893 19.071C8.83418 22.9763 15.1658 22.9763 19.0711 19.071C21.0811 17.061 22.0565 14.4082 21.9975 11.7743C21.9796 10.9772 21.8669 10.1818 21.6595 9.40643C21.0933 9.9488 20.5078 10.4276 19.9163 10.8425C18.5649 11.7906 17.1826 12.4053 15.9301 12.6837C14.0241 13.1072 12.7156 12.7156 12 12C11.2844 11.2844 10.8928 9.97588 11.3163 8.0699C11.5947 6.81738 12.2094 5.43511 13.1575 4.08368C13.5724 3.49221 14.0512 2.90664 14.5935 2.34046C13.8182 2.13305 13.0228 2.02041 12.2256 2.00253ZM17.6569 17.6568C18.9081 16.4056 19.6582 14.8431 19.9072 13.2186C16.3611 15.2643 12.638 15.4664 10.5858 13.4142C8.53361 11.362 8.73568 7.63895 10.7814 4.09281C9.1569 4.34184 7.59434 5.09193 6.34315 6.34313C3.21895 9.46732 3.21895 14.5326 6.34315 17.6568C9.46734 20.781 14.5327 20.781 17.6569 17.6568Z" fill="currentColor"/>

</symbol>
<symbol id="sun" viewBox="0 0 24 24">
  <path fill-rule="evenodd" clip-rule="evenodd" d="M12 16C14.2091 16 16 14.2091 16 12C16 9.79086 14.2091 8 12 8C9.79086 8 8 9.79086 8 12C8 14.2091 9.79086 16 12 16ZM12 18C15.3137 18 18 15.3137 18 12C18 8.68629 15.3137 6 12 6C8.68629 6 6 8.68629 6 12C6 15.3137 8.68629 18 12 18Z" fill="currentColor"/>
  <path fill-rule="evenodd" clip-rule="evenodd" d="M11 0H13V4.06189C12.6724 4.02104 12.3387 4 12 4C11.6613 4 11.3276 4.02104 11 4.06189V0ZM7.0943 5.68018L4.22173 2.80761L2.80752 4.22183L5.6801 7.09441C6.09071 6.56618 6.56608 6.0908 7.0943 5.68018ZM4.06189 11H0V13H4.06189C4.02104 12.6724 4 12.3387 4 12C4 11.6613 4.02104 11.3276 4.06189 11ZM5.6801 16.9056L2.80751 19.7782L4.22173 21.1924L7.0943 18.3198C6.56608 17.9092 6.09071 17.4338 5.6801 16.9056ZM11 19.9381V24H13V19.9381C12.6724 19.979 12.3387 20 12 20C11.6613 20 11.3276 19.979 11 19.9381ZM16.9056 18.3199L19.7781 21.1924L21.1923 19.7782L18.3198 16.9057C17.9092 17.4339 17.4338 17.9093 16.9056 18.3199ZM19.9381 13H24V11H19.9381C19.979 11.3276 20 11.6613 20 12C20 12.3387 19.979 12.6724 19.9381 13ZM18.3198 7.0943L21.1923 4.22183L19.7781 2.80762L16.9056 5.6801C17.4338 6.09071 17.9092 6.56608 18.3198 7.0943Z" fill="currentColor"/>

</symbol></svg>